<svg width="23" height="26" viewBox="0 0 23 26" fill="none" xmlns="http://www.w3.org/2000/svg">
<path d="M22.4428 24.1254L19.5121 13.2066C19.4343 12.8954 19.149 12.662 18.8118 12.662H11.7833C13.106 10.1462 14.2213 7.57863 14.2213 6.15219C14.2213 2.98807 11.6536 0.394531 8.4636 0.394531C5.27355 0.394531 2.70594 2.96213 2.70594 6.15219C2.70594 7.57863 3.82116 10.1462 5.14387 12.662H4.10645C3.76929 12.662 3.484 12.8954 3.4062 13.2066L0.449565 24.1254C0.397694 24.3329 0.449565 24.5663 0.579242 24.7479C0.708918 24.9294 0.942337 25.0331 1.14982 25.0331H21.7425C21.9759 25.0331 22.1834 24.9294 22.3131 24.7479C22.4428 24.5663 22.4946 24.3329 22.4428 24.1254ZM8.4636 1.84691C10.8237 1.84691 12.7689 3.76613 12.7689 6.15219C12.7689 7.44896 11.3165 10.7427 8.85263 14.9962C8.74889 15.2036 8.5414 15.2296 8.4636 15.2296C8.38579 15.2296 8.20424 15.2036 8.07457 14.9962C5.63664 10.7427 4.15832 7.44896 4.15832 6.15219C4.15832 3.76613 6.10348 1.84691 8.4636 1.84691ZM4.6511 14.1144H5.92193C6.23315 14.659 6.51844 15.2036 6.82967 15.6964C7.16683 16.2929 7.78928 16.656 8.4636 16.656C9.13792 16.656 9.76037 16.2929 10.0975 15.6964C10.3828 15.1777 10.694 14.659 11.0053 14.1144H12.9504L10.9793 19.0421L3.25059 19.3792L4.6511 14.1144ZM2.83562 20.8316L11.498 20.4685C11.7833 20.4685 12.0427 20.287 12.1464 20.0017L12.717 18.5752L14.8696 19.7942L15.4921 23.5548H2.10943L2.83562 20.8316ZM16.9704 23.5808L16.2442 19.2496C16.2183 19.0421 16.0886 18.8346 15.8811 18.7308L13.2616 17.2266L14.5065 14.1144H18.2412L20.7829 23.5808H16.9704Z" fill="#504A4A"/>
<path d="M11.2455 6.15204C11.2455 4.62185 10.0006 3.37695 8.4704 3.37695C6.94021 3.37695 5.69531 4.62185 5.69531 6.15204C5.69531 7.68223 6.94021 8.92713 8.4704 8.92713C10.0006 8.92713 11.2455 7.68223 11.2455 6.15204ZM7.14769 6.15204C7.14769 5.42585 7.74421 4.82933 8.4704 4.82933C9.19659 4.82933 9.7931 5.42585 9.7931 6.15204C9.7931 6.87823 9.19659 7.47474 8.4704 7.47474C7.74421 7.44881 7.14769 6.87823 7.14769 6.15204Z" fill="#504A4A"/>
</svg>
