<svg width="25" height="25" viewBox="0 0 25 25" fill="none" xmlns="http://www.w3.org/2000/svg">
<path d="M20.6887 22.5764H18.647V20.5231C18.647 18.8222 17.276 17.4433 15.5845 17.4433H9.4596C7.76824 17.4433 6.39712 18.8222 6.39712 20.5231V22.5764H4.35547V20.5231C4.35547 17.6883 6.64067 15.3901 9.4596 15.3901H15.5845C18.4035 15.3901 20.6887 17.6883 20.6887 20.5231V22.5764ZM12.5221 13.3369C9.13935 13.3369 6.39712 10.5791 6.39712 7.17723C6.39712 3.77535 9.13935 1.01758 12.5221 1.01758C15.9048 1.01758 18.647 3.77535 18.647 7.17723C18.647 10.5791 15.9048 13.3369 12.5221 13.3369ZM12.5221 11.2837C14.7772 11.2837 16.6054 9.44516 16.6054 7.17723C16.6054 4.90931 14.7772 3.0708 12.5221 3.0708C10.2669 3.0708 8.43877 4.90931 8.43877 7.17723C8.43877 9.44516 10.2669 11.2837 12.5221 11.2837Z" fill="#504A4A"/>
</svg>
