<svg width="23" height="23" viewBox="0 0 23 23" fill="none" xmlns="http://www.w3.org/2000/svg">
<path d="M5.15045 4.80285H5.87511C6.27369 4.80285 6.59978 4.47676 6.59978 4.07818C6.59978 3.6796 6.27369 3.35352 5.87511 3.35352H5.15045C4.75187 3.35352 4.42578 3.6796 4.42578 4.07818C4.42578 4.47676 4.75187 4.80285 5.15045 4.80285Z" fill="#504A4A"/>
<path d="M8.05279 4.80285H8.77746C9.17603 4.80285 9.50212 4.47676 9.50212 4.07818C9.50212 3.6796 9.17603 3.35352 8.77746 3.35352H8.05279C7.65421 3.35352 7.32812 3.6796 7.32812 4.07818C7.32812 4.47676 7.65421 4.80285 8.05279 4.80285Z" fill="#504A4A"/>
<path d="M10.9512 4.80285H11.6759C12.0745 4.80285 12.4006 4.47676 12.4006 4.07818C12.4006 3.6796 12.0745 3.35352 11.6759 3.35352H10.9512C10.5527 3.35352 10.2266 3.6796 10.2266 4.07818C10.2266 4.47676 10.5527 4.80285 10.9512 4.80285Z" fill="#504A4A"/>
<path d="M5.15045 7.70128H5.87511C6.27369 7.70128 6.59978 7.3752 6.59978 6.97662C6.59978 6.57804 6.27369 6.25195 5.87511 6.25195H5.15045C4.75187 6.25195 4.42578 6.57804 4.42578 6.97662C4.42578 7.3752 4.75187 7.70128 5.15045 7.70128Z" fill="#504A4A"/>
<path d="M8.05279 7.70128H8.77746C9.17603 7.70128 9.50212 7.3752 9.50212 6.97662C9.50212 6.57804 9.17603 6.25195 8.77746 6.25195H8.05279C7.65421 6.25195 7.32812 6.57804 7.32812 6.97662C7.32812 7.3752 7.65421 7.70128 8.05279 7.70128Z" fill="#504A4A"/>
<path d="M10.9512 7.70128H11.6759C12.0745 7.70128 12.4006 7.3752 12.4006 6.97662C12.4006 6.57804 12.0745 6.25195 11.6759 6.25195H10.9512C10.5527 6.25195 10.2266 6.57804 10.2266 6.97662C10.2266 7.3752 10.5527 7.70128 10.9512 7.70128Z" fill="#504A4A"/>
<path d="M5.15045 10.5997H5.87511C6.27369 10.5997 6.59978 10.2736 6.59978 9.87506C6.59978 9.47648 6.27369 9.15039 5.87511 9.15039H5.15045C4.75187 9.15039 4.42578 9.47648 4.42578 9.87506C4.42578 10.2736 4.75187 10.5997 5.15045 10.5997Z" fill="#504A4A"/>
<path d="M8.05279 10.5997H8.77746C9.17603 10.5997 9.50212 10.2736 9.50212 9.87506C9.50212 9.47648 9.17603 9.15039 8.77746 9.15039H8.05279C7.65421 9.15039 7.32812 9.47648 7.32812 9.87506C7.32812 10.2736 7.65421 10.5997 8.05279 10.5997Z" fill="#504A4A"/>
<path d="M10.9512 10.5997H11.6759C12.0745 10.5997 12.4006 10.2736 12.4006 9.87506C12.4006 9.47648 12.0745 9.15039 11.6759 9.15039H10.9512C10.5527 9.15039 10.2266 9.47648 10.2266 9.87506C10.2266 10.2736 10.5527 10.5997 10.9512 10.5997Z" fill="#504A4A"/>
<path d="M9.14654 16.4062C8.74796 16.4062 8.42188 16.7323 8.42188 17.1309V17.8556C8.42188 18.2542 8.74796 18.5802 9.14654 18.5802C9.54512 18.5802 9.87121 18.2542 9.87121 17.8556V17.1309C9.87121 16.7323 9.54512 16.4062 9.14654 16.4062Z" fill="#504A4A"/>
<path d="M21.4606 20.7458H20.736V8.42651C20.736 8.12215 20.5476 7.85401 20.265 7.74533L14.9386 5.74525V1.17974C14.9386 0.781166 14.6125 0.455078 14.214 0.455078H2.61931C2.22073 0.455078 1.89464 0.781166 1.89464 1.17974V20.7457H1.16998C0.7714 20.7457 0.445312 21.0718 0.445312 21.4704C0.445312 21.8689 0.7714 22.195 1.16998 22.195H21.4606C21.8592 22.195 22.1853 21.8689 22.1853 21.4704C22.1853 21.0718 21.8592 20.7458 21.4606 20.7458ZM19.2867 8.92647V10.6005H17.1127C16.7141 10.6005 16.388 10.9265 16.388 11.3251C16.388 11.7237 16.7141 12.0498 17.1127 12.0498H19.2867V13.4991H17.1127C16.7141 13.4991 16.388 13.8252 16.388 14.2238C16.388 14.6224 16.7141 14.9485 17.1127 14.9485H19.2867V16.3978H17.1127C16.7141 16.3978 16.388 16.7239 16.388 17.1224C16.388 17.521 16.7141 17.8471 17.1127 17.8471H19.2867V20.7458H14.9387V7.29599L19.2867 8.92647ZM3.34402 1.90452H13.4893V20.7458H12.04V14.5863C12.04 13.5862 11.2284 12.7746 10.2283 12.7746H6.60501C5.60498 12.7746 4.79335 13.5862 4.79335 14.5863V20.7458H3.34402V1.90452ZM10.5907 20.7458H6.24268V14.5863C6.24268 14.3834 6.40211 14.2239 6.60501 14.2239H10.2283C10.4312 14.2239 10.5907 14.3834 10.5907 14.5863V20.7458Z" fill="#504A4A"/>
</svg>
