<svg width="386" height="428" viewBox="0 0 386 428" fill="none" xmlns="http://www.w3.org/2000/svg">
<path d="M192.57 18.3398C205.324 18.3399 217.923 22.1679 248.032 32.4307L254.293 34.5703L266.549 38.7656C298.942 49.8538 322.47 57.9152 338.968 64.6172C347.2 67.9616 353.08 70.7304 357.151 73.0947C360.594 75.0939 361.817 76.2836 362.049 76.5098C362.194 76.818 362.94 78.4251 363.724 82.4912C364.629 87.1911 365.33 93.7334 365.817 102.677C366.793 120.598 366.8 145.647 366.8 180.089V213.782C366.8 321.387 287.657 375.317 232.785 399.865L230.191 401.013C222.211 404.499 217.792 406.384 212.894 407.638C208.257 408.825 202.506 409.593 192.57 409.593C182.635 409.593 176.883 408.825 172.246 407.638C167.347 406.384 162.929 404.498 154.947 401.012H154.946C100.013 377.015 18.3398 323.094 18.3398 213.782V180.089C18.3398 145.647 18.3464 120.598 19.3223 102.677C19.8093 93.7334 20.5103 87.191 21.416 82.4912C22.2004 78.421 22.9464 76.8146 23.0908 76.5088C23.3236 76.2819 24.5482 75.0931 27.9893 73.0947C32.0604 70.7305 37.9398 67.9615 46.1719 64.6172C60.6071 58.7529 80.4257 51.8471 106.855 42.7842L118.591 38.7656L130.847 34.5703C165.537 22.6957 178.966 18.3398 192.57 18.3398Z" stroke="#16A15F" stroke-width="36.68"/>
<path d="M208.605 149.827C208.605 140.965 201.42 133.78 192.558 133.78C183.695 133.78 176.51 140.965 176.51 149.827V197.97H128.368C119.505 197.97 112.32 205.155 112.32 214.017C112.32 222.88 119.505 230.065 128.368 230.065H176.51V278.207C176.51 287.07 183.695 294.255 192.558 294.255C201.42 294.255 208.605 287.07 208.605 278.207V230.065H256.748C265.61 230.065 272.795 222.88 272.795 214.017C272.795 205.155 265.61 197.97 256.748 197.97H208.605V149.827Z" fill="#16A15F"/>
</svg>
