<svg width="20" height="20" viewBox="0 0 20 20" fill="none" xmlns="http://www.w3.org/2000/svg">
<path d="M1.87077 10.7248C3.45206 13.871 6.0063 16.4237 9.15434 18.0041L10.5507 18.7019C11.4964 19.1824 12.5412 19.4361 13.6021 19.4427C14.1553 19.4463 14.7063 19.3739 15.2398 19.2274C16.0331 19.0161 16.7691 18.6304 17.3939 18.0983C18.0188 17.5662 18.5168 16.9012 18.8514 16.152L19.1962 15.4025C19.2808 15.2184 19.2978 15.0104 19.2442 14.8151C19.1906 14.6197 19.0698 14.4495 18.9031 14.3343L14.464 11.2331C14.3275 11.1339 14.165 11.077 13.9964 11.0693C13.8279 11.0617 13.6608 11.1036 13.5159 11.19L12.6539 11.7069C11.9192 12.0579 11.0801 12.1236 10.2997 11.8912C9.51919 11.6588 8.85296 11.1448 8.4303 10.4491C8.09859 9.96936 7.90612 9.40724 7.87417 8.82495C7.84222 8.24266 7.97205 7.66289 8.24929 7.14975L8.6975 6.35721C8.77677 6.2163 8.81477 6.05593 8.80715 5.89446C8.79953 5.73298 8.7466 5.5769 8.65441 5.44407L5.55135 0.973111C5.43608 0.806489 5.26575 0.685793 5.07028 0.632228C4.8748 0.578662 4.6667 0.595653 4.48252 0.680215L3.73261 1.0248C2.98296 1.35922 2.31759 1.8569 1.78517 2.48141C1.25276 3.10593 0.866756 3.84149 0.655409 4.6343C0.233341 6.21163 0.417859 7.88976 1.17259 9.33785L1.87077 10.7248ZM2.31037 5.09087C2.48216 4.44083 2.82089 3.84692 3.29301 3.36796C3.62555 3.0407 4.01374 2.77525 4.43942 2.58403L4.53423 2.54096L6.91325 5.98679L6.73223 6.30552C6.29838 7.09721 6.0921 7.99341 6.13622 8.89498C6.18033 9.79655 6.47312 10.6684 6.9822 11.414C7.64325 12.4656 8.67131 13.2346 9.86724 13.572C11.0632 13.9094 12.3418 13.7912 13.4555 13.2402L13.9124 12.9818L17.3602 15.3594L17.3171 15.4628C17.1261 15.8884 16.8605 16.2764 16.5327 16.6085C16.0542 17.0832 15.46 17.4247 14.8088 17.5992C13.6502 17.8997 12.4211 17.7585 11.361 17.2029L9.93011 16.4793C7.11368 15.0654 4.82848 12.7815 3.41368 9.96671L2.7155 8.57115C2.14798 7.50306 2.00336 6.26065 2.31037 5.09087Z" fill="#504A4A"/>
</svg>
