<svg width="22" height="17" viewBox="0 0 22 17" fill="none" xmlns="http://www.w3.org/2000/svg">
<path d="M19.3156 16.1555H2.63261C1.41903 16.1537 0.435366 15.1701 0.433594 13.9565V2.4119C0.435369 1.19833 1.41901 0.214663 2.63261 0.212891H19.3156C20.5291 0.214666 21.5128 1.19831 21.5146 2.4119V13.9565C21.5128 15.1701 20.5292 16.1538 19.3156 16.1555ZM2.76579 14.7351H19.1824L14.1177 9.23267C13.4554 9.95266 12.913 10.5404 12.5943 10.8866H12.5951C12.1672 11.318 11.5849 11.5604 10.9767 11.5613C10.3695 11.5622 9.78623 11.3207 9.35745 10.8901C9.03252 10.5377 8.49009 9.94823 7.83047 9.23178L2.76579 14.7351ZM15.0836 8.18428L20.0933 13.6272L20.0942 2.7414C18.8282 4.11656 16.7704 6.35294 15.0836 8.18428ZM1.85398 2.7414V13.6272L6.86459 8.18428C5.17871 6.35369 3.12533 4.12274 1.85398 2.7414ZM2.76572 1.63346C4.80494 3.84845 9.16836 8.58904 10.3979 9.92357C10.5506 10.078 10.7592 10.165 10.9767 10.1642C11.1942 10.1633 11.402 10.0754 11.5547 9.92002C12.7576 8.615 17.153 3.84057 19.1832 1.63355L2.76572 1.63346Z" fill="#504A4A"/>
</svg>
